<?xml version="1.0" encoding="UTF-8" standalone="no"?>
<!-- Created with Inkscape (http://www.inkscape.org/) -->

<svg
   xmlns:dc="http://purl.org/dc/elements/1.1/"
   xmlns:cc="http://creativecommons.org/ns#"
   xmlns:rdf="http://www.w3.org/1999/02/22-rdf-syntax-ns#"
   xmlns:svg="http://www.w3.org/2000/svg"
   xmlns="http://www.w3.org/2000/svg"
   xmlns:sodipodi="http://sodipodi.sourceforge.net/DTD/sodipodi-0.dtd"
   xmlns:inkscape="http://www.inkscape.org/namespaces/inkscape"
   id="svg2985"
   version="1.1"
   inkscape:version="0.48.4 r9939"
   width="538.25"
   height="538.2525"
   xml:space="preserve"
   sodipodi:docname="page-908890.ai"><metadata
     id="metadata2991"><rdf:RDF><cc:Work
         rdf:about=""><dc:format>image/svg+xml</dc:format><dc:type
           rdf:resource="http://purl.org/dc/dcmitype/StillImage" /><dc:title></dc:title></cc:Work></rdf:RDF></metadata><defs
     id="defs2989"><clipPath
       clipPathUnits="userSpaceOnUse"
       id="clipPath2999"><path
         d="m 0,430.602 332.738,0 L 332.738,0 0,0 0,430.602 z"
         id="path3001"
         inkscape:connector-curvature="0" /></clipPath></defs><sodipodi:namedview
     pagecolor="#ffffff"
     bordercolor="#666666"
     borderopacity="1"
     objecttolerance="10"
     gridtolerance="10"
     guidetolerance="10"
     inkscape:pageopacity="0"
     inkscape:pageshadow="2"
     inkscape:window-width="1920"
     inkscape:window-height="1017"
     id="namedview2987"
     showgrid="false"
     inkscape:zoom="0.87691185"
     inkscape:cx="-124.58517"
     inkscape:cy="144.55142"
     inkscape:window-x="1912"
     inkscape:window-y="32"
     inkscape:window-maximized="1"
     inkscape:current-layer="layer1" /><g
     id="g2993"
     inkscape:groupmode="layer"
     inkscape:label="page-908890"
     transform="matrix(1.25,0,0,-1.25,0,538.2525)" /><g
     inkscape:groupmode="layer"
     id="layer1"
     inkscape:label="Glasses"><g
       id="g3931"
       transform="translate(61.163563,0)"><g
         id="g2995"
         transform="matrix(1.25,0,0,-1.25,0,538.2525)"><g
           clip-path="url(#clipPath2999)"
           id="g2997"><g
             transform="translate(332.7383,39.1445)"
             id="g3003"><path
               inkscape:connector-curvature="0"
               id="path3005"
               style="fill:#efeeef;fill-opacity:1;fill-rule:nonzero;stroke:none"
               d="m 0,0 c 0,-21.617 -17.527,-39.145 -39.146,-39.145 l -254.447,0 c -21.616,0 -39.145,17.528 -39.145,39.145 l 0,352.312 c 0,21.618 17.529,39.145 39.145,39.145 l 254.447,0 C -17.527,391.457 0,373.93 0,352.312 L 0,0 z" /></g></g></g><path
         inkscape:connector-curvature="0"
         id="path3007"
         style="fill:#d0d2d3;fill-opacity:1;fill-rule:nonzero;stroke:none"
         d="m 292.369,40.602 -114,0 0,12 114,0 0,-12 z"
         transform="matrix(1.25,0,0,-1.25,0,538.2525)" /><path
         inkscape:connector-curvature="0"
         id="path3009"
         style="fill:#d0d2d3;fill-opacity:1;fill-rule:nonzero;stroke:none"
         d="m 292.369,58.602 -114,0 0,12 114,0 0,-12 z"
         transform="matrix(1.25,0,0,-1.25,0,538.2525)" /><path
         inkscape:connector-curvature="0"
         id="path3011"
         style="fill:#d0d2d3;fill-opacity:1;fill-rule:nonzero;stroke:none"
         d="m 292.369,76.602 -114,0 0,12 114,0 0,-12 z"
         transform="matrix(1.25,0,0,-1.25,0,538.2525)" /><path
         inkscape:connector-curvature="0"
         id="path3013"
         style="fill:#d0d2d3;fill-opacity:1;fill-rule:nonzero;stroke:none"
         d="m 292.369,112.602 -114,0 0,12 114,0 0,-12 z"
         transform="matrix(1.25,0,0,-1.25,0,538.2525)" /><path
         inkscape:connector-curvature="0"
         id="path3015"
         style="fill:#d0d2d3;fill-opacity:1;fill-rule:nonzero;stroke:none"
         d="m 292.369,130.602 -114,0 0,12 114,0 0,-12 z"
         transform="matrix(1.25,0,0,-1.25,0,538.2525)" /><path
         inkscape:connector-curvature="0"
         id="path3017"
         style="fill:#d0d2d3;fill-opacity:1;fill-rule:nonzero;stroke:none"
         d="m 292.369,148.602 -114,0 0,12 114,0 0,-12 z"
         transform="matrix(1.25,0,0,-1.25,0,538.2525)" /><path
         inkscape:connector-curvature="0"
         id="path3019"
         style="fill:#d0d2d3;fill-opacity:1;fill-rule:nonzero;stroke:none"
         d="m 292.369,166.602 -114,0 0,12 114,0 0,-12 z"
         transform="matrix(1.25,0,0,-1.25,0,538.2525)" /><path
         inkscape:connector-curvature="0"
         id="path3021"
         style="fill:#d0d2d3;fill-opacity:1;fill-rule:nonzero;stroke:none"
         d="m 292.369,202.602 -114,0 0,12 114,0 0,-12 z"
         transform="matrix(1.25,0,0,-1.25,0,538.2525)" /><path
         inkscape:connector-curvature="0"
         id="path3023"
         style="fill:#d0d2d3;fill-opacity:1;fill-rule:nonzero;stroke:none"
         d="m 292.369,220.602 -114,0 0,12 114,0 0,-12 z"
         transform="matrix(1.25,0,0,-1.25,0,538.2525)" /><path
         inkscape:connector-curvature="0"
         id="path3025"
         style="fill:#d0d2d3;fill-opacity:1;fill-rule:nonzero;stroke:none"
         d="m 292.369,238.602 -114,0 0,12 114,0 0,-12 z"
         transform="matrix(1.25,0,0,-1.25,0,538.2525)" /><path
         inkscape:connector-curvature="0"
         id="path3027"
         style="fill:#d0d2d3;fill-opacity:1;fill-rule:nonzero;stroke:none"
         d="m 292.369,256.602 -114,0 0,12 114,0 0,-12 z"
         transform="matrix(1.25,0,0,-1.25,0,538.2525)" /><path
         inkscape:connector-curvature="0"
         id="path3029"
         style="fill:#d0d2d3;fill-opacity:1;fill-rule:nonzero;stroke:none"
         d="m 154.369,40.602 -114,0 0,12 114,0 0,-12 z"
         transform="matrix(1.25,0,0,-1.25,0,538.2525)" /><path
         inkscape:connector-curvature="0"
         id="path3031"
         style="fill:#d0d2d3;fill-opacity:1;fill-rule:nonzero;stroke:none"
         d="m 154.369,58.602 -114,0 0,12 114,0 0,-12 z"
         transform="matrix(1.25,0,0,-1.25,0,538.2525)" /><path
         inkscape:connector-curvature="0"
         id="path3033"
         style="fill:#d0d2d3;fill-opacity:1;fill-rule:nonzero;stroke:none"
         d="m 154.369,76.602 -114,0 0,12 114,0 0,-12 z"
         transform="matrix(1.25,0,0,-1.25,0,538.2525)" /><path
         inkscape:connector-curvature="0"
         id="path3035"
         style="fill:#d0d2d3;fill-opacity:1;fill-rule:nonzero;stroke:none"
         d="m 154.369,112.602 -114,0 0,12 114,0 0,-12 z"
         transform="matrix(1.25,0,0,-1.25,0,538.2525)" /><path
         inkscape:connector-curvature="0"
         id="path3037"
         style="fill:#d0d2d3;fill-opacity:1;fill-rule:nonzero;stroke:none"
         d="m 154.369,130.602 -114,0 0,12 114,0 0,-12 z"
         transform="matrix(1.25,0,0,-1.25,0,538.2525)" /><path
         inkscape:connector-curvature="0"
         id="path3039"
         style="fill:#d0d2d3;fill-opacity:1;fill-rule:nonzero;stroke:none"
         d="m 154.369,148.602 -114,0 0,12 114,0 0,-12 z"
         transform="matrix(1.25,0,0,-1.25,0,538.2525)" /><path
         inkscape:connector-curvature="0"
         id="path3041"
         style="fill:#d0d2d3;fill-opacity:1;fill-rule:nonzero;stroke:none"
         d="m 154.369,166.602 -114,0 0,12 114,0 0,-12 z"
         transform="matrix(1.25,0,0,-1.25,0,538.2525)" /><path
         inkscape:connector-curvature="0"
         id="path3043"
         style="fill:#d0d2d3;fill-opacity:1;fill-rule:nonzero;stroke:none"
         d="m 154.369,202.602 -114,0 0,12 114,0 0,-12 z"
         transform="matrix(1.25,0,0,-1.25,0,538.2525)" /><path
         inkscape:connector-curvature="0"
         id="path3045"
         style="fill:#d0d2d3;fill-opacity:1;fill-rule:nonzero;stroke:none"
         d="m 154.369,220.602 -114,0 0,12 114,0 0,-12 z"
         transform="matrix(1.25,0,0,-1.25,0,538.2525)" /><path
         inkscape:connector-curvature="0"
         id="path3047"
         style="fill:#d0d2d3;fill-opacity:1;fill-rule:nonzero;stroke:none"
         d="m 154.369,238.602 -114,0 0,12 114,0 0,-12 z"
         transform="matrix(1.25,0,0,-1.25,0,538.2525)" /><path
         inkscape:connector-curvature="0"
         id="path3049"
         style="fill:#d0d2d3;fill-opacity:1;fill-rule:nonzero;stroke:none"
         d="m 154.369,256.602 -114,0 0,12 114,0 0,-12 z"
         transform="matrix(1.25,0,0,-1.25,0,538.2525)" /><path
         inkscape:connector-curvature="0"
         id="path3051"
         style="fill:#bbbdbf;fill-opacity:1;fill-rule:nonzero;stroke:none"
         d="m 292.369,292.602 -252,0 0,12 252,0 0,-12 z"
         transform="matrix(1.25,0,0,-1.25,0,538.2525)" /><path
         inkscape:connector-curvature="0"
         id="path3053"
         style="fill:#bbbdbf;fill-opacity:1;fill-rule:nonzero;stroke:none"
         d="m 292.369,310.602 -252,0 0,12 252,0 0,-12 z"
         transform="matrix(1.25,0,0,-1.25,0,538.2525)" /><path
         inkscape:connector-curvature="0"
         id="path3055"
         style="fill:#bbbdbf;fill-opacity:1;fill-rule:nonzero;stroke:none"
         d="m 292.369,328.602 -252,0 0,12 252,0 0,-12 z"
         transform="matrix(1.25,0,0,-1.25,0,538.2525)" /><path
         inkscape:connector-curvature="0"
         id="path3057"
         style="fill:#929497;fill-opacity:1;fill-rule:nonzero;stroke:none"
         d="m 219.37,358.602 -106.002,0 0,12 106.002,0 0,-12 z"
         transform="matrix(1.25,0,0,-1.25,0,538.2525)" /><path
         inkscape:connector-curvature="0"
         id="path3059"
         style="fill:#929497;fill-opacity:1;fill-rule:nonzero;stroke:none"
         d="m 292.369,376.602 -252,0 0,18 252,0 0,-18 z"
         transform="matrix(1.25,0,0,-1.25,0,538.2525)" /><path
         inkscape:connector-curvature="0"
         d="m 211.24917,220.602 -32.88017,0 0,12 32.88017,0 0,-12 z"
         style="fill:#ff0000;fill-opacity:1;fill-rule:nonzero;stroke:none"
         id="path3873"
         transform="matrix(1.25,0,0,-1.25,0,538.2525)" /><path
         id="path3875"
         style="fill:#ff0000;fill-opacity:1;fill-rule:nonzero;stroke:none"
         d="m 278.33834,220.602 -32.88017,0 0,12 32.88017,0 0,-12 z"
         inkscape:connector-curvature="0"
         transform="matrix(1.25,0,0,-1.25,0,538.2525)" /><path
         inkscape:connector-curvature="0"
         d="m 240.92323,256.602 -32.88017,0 0,12 32.88017,0 0,-12 z"
         style="fill:#ff0000;fill-opacity:1;fill-rule:nonzero;stroke:none"
         id="path3877"
         transform="matrix(1.25,0,0,-1.25,0,538.2525)" /><path
         id="path3879"
         style="fill:#ff0000;fill-opacity:1;fill-rule:nonzero;stroke:none"
         d="m 122.19523,58.602 -41.266315,0 0,12 41.266315,0 0,-12 z"
         inkscape:connector-curvature="0"
         transform="matrix(1.25,0,0,-1.25,0,538.2525)" /><path
         inkscape:connector-curvature="0"
         d="m 255.72847,40.602 -57.39352,0 0,12 57.39352,0 0,-12 z"
         style="fill:#ff0000;fill-opacity:1;fill-rule:nonzero;stroke:none"
         id="path3881"
         transform="matrix(1.25,0,0,-1.25,0,538.2525)" /><path
         id="path3883"
         style="fill:#f6ff00;fill-opacity:1;fill-rule:nonzero;stroke:none"
         d="m 313.1731,268.21358 -50.94264,0 0,41.02897 50.94264,0 0,-41.02897 z"
         inkscape:connector-curvature="0"
         transform="matrix(1.25,0,0,-1.25,0,538.2525)" /><path
         inkscape:connector-curvature="0"
         d="m 305.36917,297.901 -36.91129,0 0,5.84203 36.91129,0 0,-5.84203 z"
         style="fill:#363939;fill-opacity:1;fill-rule:nonzero;stroke:none"
         id="path3885"
         transform="matrix(1.25,0,0,-1.25,0,538.2525)" /><path
         id="path3887"
         style="fill:#363939;fill-opacity:1;fill-rule:nonzero;stroke:none"
         d="m 297.84276,286.95349 -29.38488,0 0,5.84203 29.38488,0 0,-5.84203 z"
         inkscape:connector-curvature="0"
         transform="matrix(1.25,0,0,-1.25,0,538.2525)" /><path
         inkscape:connector-curvature="0"
         d="m 301.49193,276.00598 -33.03405,0 0,5.84203 33.03405,0 0,-5.84203 z"
         style="fill:#363939;fill-opacity:1;fill-rule:nonzero;stroke:none"
         id="path3889"
         transform="matrix(1.25,0,0,-1.25,0,538.2525)" /><g
         transform="translate(-97.231504,150.12814)"
         style="stroke:#000000;stroke-width:4"
         id="g3082"><path
           inkscape:connector-curvature="0"
           d="m 407.18,161.49 c -29.26,0.19554 -57.457,9.3417 -86.177,12.999 -11.987,1.5264 -24.341,1.9009 -36.348,0.48144 -15.964,-1.8872 -31.42,-6.9005 -47.373,-9.1473 -14.257,-2.0079 -28.693,-4.104 -43.04,-4.1885 -25.072,-0.14757 -49.321,7.7022 -73.9,11.94 0,7.1903 -1.4602,16.419 2.2146,21.472 3.7904,5.2121 10.185,9.9792 11.843,17.043 3.9335,16.751 9.5177,33.172 16.658,48.914 3.4698,7.65 10.019,12.984 17.332,16.658 17.61,8.8473 38.453,10.148 57.772,7.3659 27.512,-3.9621 42.437,-24.605 53.824,-48.192 4.2624,-9.588 4.7378,-20.653 10.351,-29.416 3.334,-5.2047 11.076,-3.014 16.609,-3.033 5.5333,-0.0191 10.223,9.184 11.94,15.31 6.0772,21.679 16.21,44.68 36.348,56.039 30.073,16.963 77.45,13.79 96.961,-16.802 7.636,-11.973 9.7453,-26.5 13.576,-40.056 2.3324,-8.2524 4.4156,-18.091 12.71,-22.628 3.3474,-1.831 0.99835,-9.1373 1.4924,-13.384 0.53833,-4.6276 1.5763,-8.7198 -5.007,-9.6287 -11.483,-1.5856 -22.622,-6.4079 -34.374,-8.04 -11.137,-1.5467 -22.049,-3.783 -33.412,-3.7071 z m -193.44,7.703 c 8.3056,-0.0529 16.576,0.5551 24.65,2.2627 48.1,10.174 49.073,29.992 29.271,70.964 -16.136,33.386 -49.56,41.751 -83.24,33.749 -15.526,-3.6888 -26.142,-14.526 -31.149,-29.368 -5.2844,-15.664 -9.2818,-32.306 -8.377,-48.77 1.2118,-22.046 26.148,-25.145 44.003,-27.153 8.1932,-0.92154 16.536,-1.6322 24.842,-1.685 z m 175.63,0 c 8.3057,0.0528 16.649,0.76349 24.842,1.685 17.855,2.0082 42.792,5.1066 44.003,27.153 0.90494,16.463 -3.0924,33.106 -8.3769,48.77 -5.007,14.841 -15.624,25.679 -31.149,29.368 -33.68,8.0024 -67.105,-0.36276 -83.24,-33.749 -19.802,-40.972 -18.829,-60.789 29.271,-70.964 8.0732,-1.7076 16.344,-2.3155 24.65,-2.2627 z"
           id="path3084" /><g
           style="fill:#ffffff"
           id="g3086"><path
             style="opacity:0.85"
             inkscape:connector-curvature="0"
             d="m 188.89,170.89 c 16.386,-1.843 33.343,-2.8404 49.489,0.57484 48.101,10.174 49.071,29.994 29.269,70.966 -16.136,33.386 -49.543,41.753 -83.223,33.751 -15.525,-3.6888 -26.148,-14.565 -31.155,-29.406 -5.2845,-15.664 -9.3038,-32.297 -8.399,-48.76 1.2118,-22.046 26.164,-25.118 44.019,-27.126 v -3e-5 z"
             id="path3088" /><path
             style="opacity:0.85"
             inkscape:connector-curvature="0"
             d="m 414.2,170.89 c -16.386,-1.843 -33.343,-2.8404 -49.489,0.57484 -48.101,10.174 -49.071,29.994 -29.269,70.966 16.136,33.386 49.543,41.753 83.223,33.751 15.526,-3.6888 26.148,-14.565 31.155,-29.406 5.2844,-15.664 9.3039,-32.297 8.3989,-48.76 -1.2117,-22.046 -26.164,-25.118 -44.019,-27.126 v -3e-5 z"
             id="path3090" /></g></g></g></g></svg>